<svg width="41" height="40" viewBox="0 0 41 40" fill="none" xmlns="http://www.w3.org/2000/svg">
<g clip-path="url(#clip0_17_79)">
<path d="M40.8889 20C40.8889 8.95437 31.9345 0 20.8889 0C9.84329 0 0.888916 8.95437 0.888916 20C0.888916 29.9825 8.20267 38.2567 17.7639 39.757V25.7812H12.6858V20H17.7639V15.5937C17.7639 10.5812 20.7499 7.8125 25.3183 7.8125C27.5064 7.8125 29.7952 8.20312 29.7952 8.20312V13.125H27.2733C24.7888 13.125 24.0139 14.6667 24.0139 16.2484V20H29.5608L28.6741 25.7812H24.0139V39.757C33.5752 38.2567 40.8889 29.9826 40.8889 20Z" fill="#1877F2"/>
<path d="M28.6741 25.7812L29.5608 20H24.0139V16.2484C24.0139 14.6666 24.7888 13.125 27.2733 13.125H29.7952V8.20312C29.7952 8.20312 27.5064 7.8125 25.3181 7.8125C20.7499 7.8125 17.7639 10.5813 17.7639 15.5938V20H12.6858V25.7812H17.7639V39.757C18.7977 39.919 19.8425 40.0003 20.8889 40C21.9353 40.0003 22.9801 39.9191 24.0139 39.757V25.7812H28.6741Z" fill="white"/>
</g>
<defs>
<clipPath id="clip0_17_79">
<rect width="40" height="40" fill="white" transform="translate(0.888916)"/>
</clipPath>
</defs>
</svg>
