<svg width="41" height="40" viewBox="0 0 41 40" fill="none" xmlns="http://www.w3.org/2000/svg">
<g clip-path="url(#clip0_17_71)">
<path d="M31.5139 0H10.2639C5.08625 0 0.888916 4.19733 0.888916 9.375V30.625C0.888916 35.8027 5.08625 40 10.2639 40H31.5139C36.6916 40 40.8889 35.8027 40.8889 30.625V9.375C40.8889 4.19733 36.6916 0 31.5139 0Z" fill="url(#paint0_radial_17_71)"/>
<path d="M31.5139 0H10.2639C5.08625 0 0.888916 4.19733 0.888916 9.375V30.625C0.888916 35.8027 5.08625 40 10.2639 40H31.5139C36.6916 40 40.8889 35.8027 40.8889 30.625V9.375C40.8889 4.19733 36.6916 0 31.5139 0Z" fill="url(#paint1_radial_17_71)"/>
<path d="M20.8903 4.375C16.6469 4.375 16.1142 4.39359 14.4477 4.46937C12.7842 4.54562 11.6488 4.80891 10.6553 5.19531C9.62751 5.59437 8.75579 6.12828 7.88735 6.99703C7.01813 7.86562 6.48423 8.73734 6.08392 9.76469C5.69642 10.7584 5.43282 11.8944 5.35798 13.557C5.28345 15.2237 5.26392 15.7566 5.26392 20.0002C5.26392 24.2437 5.28267 24.7747 5.35829 26.4412C5.43485 28.1047 5.69813 29.2402 6.08423 30.2336C6.4836 31.2614 7.01751 32.1331 7.88626 33.0016C8.75454 33.8708 9.62626 34.4059 10.6533 34.805C11.6475 35.1914 12.7831 35.4547 14.4463 35.5309C16.113 35.6067 16.6452 35.6253 20.8884 35.6253C25.1324 35.6253 25.6633 35.6067 27.3299 35.5309C28.9933 35.4547 30.13 35.1914 31.1242 34.805C32.1516 34.4059 33.022 33.8708 33.8902 33.0016C34.7594 32.1331 35.2931 31.2614 35.6936 30.2341C36.0777 29.2402 36.3414 28.1044 36.4195 26.4416C36.4944 24.775 36.5139 24.2437 36.5139 20.0002C36.5139 15.7566 36.4944 15.2241 36.4195 13.5573C36.3414 11.8939 36.0777 10.7586 35.6936 9.76516C35.2931 8.73734 34.7594 7.86562 33.8902 6.99703C33.0211 6.12797 32.1519 5.59406 31.1233 5.19547C30.1272 4.80891 28.9911 4.54547 27.3277 4.46937C25.6609 4.39359 25.1303 4.375 20.8855 4.375H20.8903ZM19.4886 7.19078C19.9047 7.19016 20.3689 7.19078 20.8903 7.19078C25.0624 7.19078 25.5567 7.20578 27.2042 7.28062C28.7277 7.35031 29.5545 7.60484 30.1053 7.81875C30.8345 8.10187 31.3544 8.44047 31.9009 8.9875C32.4478 9.53437 32.7863 10.0552 33.0702 10.7844C33.2841 11.3344 33.5389 12.1612 33.6083 13.6847C33.6831 15.3319 33.6994 15.8266 33.6994 19.9966C33.6994 24.1666 33.6831 24.6614 33.6083 26.3084C33.5386 27.8319 33.2841 28.6587 33.0702 29.2089C32.787 29.9381 32.4478 30.4573 31.9009 31.0039C31.3541 31.5508 30.8349 31.8892 30.1053 32.1725C29.5552 32.3873 28.7277 32.6412 27.2042 32.7109C25.557 32.7858 25.0624 32.802 20.8903 32.802C16.7181 32.802 16.2236 32.7858 14.5766 32.7109C13.0531 32.6406 12.2263 32.3861 11.675 32.1722C10.9459 31.8889 10.425 31.5505 9.87813 31.0036C9.33126 30.4567 8.99282 29.9372 8.70892 29.2077C8.49501 28.6575 8.24017 27.8306 8.17079 26.3072C8.09595 24.66 8.08095 24.1653 8.08095 19.9927C8.08095 15.8202 8.09595 15.328 8.17079 13.6808C8.24048 12.1573 8.49501 11.3305 8.70892 10.7797C8.9922 10.0505 9.33126 9.52969 9.87829 8.98281C10.4252 8.43594 10.9459 8.09734 11.6752 7.81359C12.2259 7.59875 13.0531 7.34484 14.5766 7.27484C16.018 7.20969 16.5766 7.19016 19.4886 7.18687V7.19078ZM29.2309 9.78516C28.1958 9.78516 27.3559 10.6242 27.3559 11.6595C27.3559 12.6947 28.1958 13.5345 29.2309 13.5345C30.2661 13.5345 31.1059 12.6947 31.1059 11.6595C31.1059 10.6244 30.2661 9.78453 29.2309 9.78453V9.78516ZM20.8903 11.9759C16.4591 11.9759 12.8663 15.5687 12.8663 20.0002C12.8663 24.4316 16.4591 28.0227 20.8903 28.0227C25.3217 28.0227 28.9133 24.4316 28.9133 20.0002C28.9133 15.5689 25.3214 11.9759 20.89 11.9759H20.8903ZM20.8903 14.7917C23.7667 14.7917 26.0988 17.1234 26.0988 20.0002C26.0988 22.8766 23.7667 25.2086 20.8903 25.2086C18.0138 25.2086 15.682 22.8766 15.682 20.0002C15.682 17.1234 18.0138 14.7917 20.8903 14.7917Z" fill="white"/>
</g>
<defs>
<radialGradient id="paint0_radial_17_71" cx="0" cy="0" r="1" gradientUnits="userSpaceOnUse" gradientTransform="translate(11.5139 43.0808) rotate(-90) scale(39.643 36.8711)">
<stop stop-color="#FFDD55"/>
<stop offset="0.1" stop-color="#FFDD55"/>
<stop offset="0.5" stop-color="#FF543E"/>
<stop offset="1" stop-color="#C837AB"/>
</radialGradient>
<radialGradient id="paint1_radial_17_71" cx="0" cy="0" r="1" gradientUnits="userSpaceOnUse" gradientTransform="translate(-5.81124 2.88141) rotate(78.681) scale(17.7206 73.045)">
<stop stop-color="#3771C8"/>
<stop offset="0.128" stop-color="#3771C8"/>
<stop offset="1" stop-color="#6600FF" stop-opacity="0"/>
</radialGradient>
<clipPath id="clip0_17_71">
<rect width="40" height="40" fill="white" transform="translate(0.888916)"/>
</clipPath>
</defs>
</svg>
